<svg width="500" height="500">
	<g transform="translate(250,250)">
		<path display="none"
		      d="M0,176.7766952966369A176.7766952966369,176.7766952966369 0 1,1 0,-176.7766952966369A176.7766952966369,176.7766952966369 0 1,1 0,176.7766952966369Z"
		      fill-rule="evenodd" style="stroke: #ffffff; fill: #3182bd; "></path>
		<path d="M1.5307579422779716e-14,-250A250,250 0 0,1 247.11708108202785,37.85694437614416L174.7381637801278,26.768902083373472A176.7766952966369,176.7766952966369 0 0,0 1.0824093213399195e-14,-176.7766952966369Z"
		      fill-rule="evenodd" style="stroke: #ffffff; fill: #6baed6; "></path>
		<path d="M247.11708108202785,37.85694437614416A250,250 0 0,1 212.16106437368774,132.24100258174064L150.02052732239025,93.50850967645655A176.7766952966369,176.7766952966369 0 0,0 174.7381637801278,26.768902083373472Z"
		      fill-rule="evenodd" style="stroke: #ffffff; fill: #9ecae1; "></path>
		<path d="M212.16106437368774,132.24100258174064A250,250 0 0,1 132.24100258174056,212.1610643736878L93.5085096764565,150.02052732239028A176.7766952966369,176.7766952966369 0 0,0 150.02052732239025,93.50850967645655Z"
		      fill-rule="evenodd" style="stroke: #ffffff; fill: #c6dbef; "></path>
		<path d="M132.24100258174056,212.1610643736878A250,250 0 0,1 -121.32549063277031,218.5866540361455L-85.79007715721684,154.5641053458363A176.7766952966369,176.7766952966369 0 0,0 93.5085096764565,150.02052732239028Z"
		      fill-rule="evenodd" style="stroke: #ffffff; fill: #e6550d; "></path>
		<path d="M-121.32549063277031,218.5866540361455A250,250 0 0,1 -74.84078074333941,-238.53481410001223L-52.920423572910885,-168.66958459919115A176.7766952966369,176.7766952966369 0 0,0 -85.79007715721684,154.5641053458363Z"
		      fill-rule="evenodd" style="stroke: #ffffff; fill: #fd8d3c; "></path>
		<path d="M-74.84078074333941,-238.53481410001223A250,250 0 0,1 -37.85694437614404,-247.11708108202788L-26.768902083373387,-174.73816378012782A176.7766952966369,176.7766952966369 0 0,0 -52.920423572910885,-168.66958459919115Z"
		      fill-rule="evenodd" style="stroke: #ffffff; fill: #fdae6b; "></path>
		<path d="M-37.85694437614404,-247.11708108202788A250,250 0 0,1 1.7612186665669216e-13,-250L1.2453696622817992e-13,-176.7766952966369A176.7766952966369,176.7766952966369 0 0,0 -26.768902083373387,-174.73816378012782Z"
		      fill-rule="evenodd" style="stroke: #ffffff; fill: #fdd0a2; "></path>
	</g>
</svg>